<?xml version="1.0" standalone="no"?>
<!DOCTYPE svg PUBLIC "-//W3C//DTD SVG 20010904//EN"
 "http://www.w3.org/TR/2001/REC-SVG-20010904/DTD/svg10.dtd">
<svg version="1.0" xmlns="http://www.w3.org/2000/svg"
 width="512.000000pt" height="512.000000pt" viewBox="0 0 512.000000 512.000000"
 preserveAspectRatio="xMidYMid meet">
<metadata>
Created by potrace 1.16, written by Peter Selinger 2001-2019
</metadata>
<g transform="translate(0.000000,512.000000) scale(0.100000,-0.100000)"
fill="#000000" stroke="none">
<path d="M2240 3457 c-19 -6 -55 -32 -81 -57 -56 -56 -74 -112 -67 -210 6 -79
17 -69 -97 -91 -82 -15 -215 -68 -328 -129 -52 -27 -103 -50 -114 -50 -14 0
-26 13 -38 40 -10 23 -22 43 -27 46 -5 3 2 -15 14 -41 18 -36 20 -48 10 -54
-9 -5 -30 9 -64 43 l-51 51 47 -53 c30 -33 46 -59 42 -68 -3 -9 -6 -18 -6 -20
0 -2 -12 -2 -27 1 l-28 5 28 -11 c16 -6 27 -18 27 -30 0 -31 24 -80 64 -133
l38 -48 -29 -32 c-66 -73 -74 -87 -20 -37 32 29 61 51 64 47 3 -3 -8 -32 -26
-65 -41 -77 -40 -90 2 -21 51 87 61 76 60 -70 l0 -125 7 115 c4 63 8 116 9
118 0 1 18 -9 39 -23 33 -22 41 -34 51 -81 7 -30 24 -85 37 -122 27 -74 25
-63 -12 77 -13 52 -22 96 -19 99 2 3 35 -14 73 -36 93 -56 210 -179 252 -268
18 -38 80 -139 136 -224 95 -143 184 -315 184 -354 0 -13 -12 -16 -63 -16 -49
0 -68 -4 -81 -18 -19 -22 -28 -21 -286 28 -290 55 -375 58 -721 28 -101 -9
-147 -9 -180 0 l-44 11 40 -5 c22 -3 112 2 200 11 88 8 210 16 270 16 l110 2
-75 9 c-50 7 -126 6 -230 -1 -282 -20 -338 -15 -420 37 -97 61 -133 204 -80
315 47 99 147 173 273 202 l62 15 -73 -4 c-137 -6 -277 -106 -318 -228 -26
-75 -24 -170 5 -235 27 -61 107 -141 168 -168 29 -13 39 -21 30 -27 -17 -11
184 -10 343 2 173 14 334 1 575 -46 99 -19 206 -38 238 -41 38 -4 57 -10 57
-19 0 -40 112 -58 470 -74 349 -16 676 -10 788 16 30 6 26 38 -6 42 -32 5 -27
15 17 40 l39 22 54 -22 c52 -22 62 -23 488 -25 l435 -2 -41 19 c-65 31 -203
50 -434 60 -118 5 -231 14 -251 20 -55 16 -85 44 -99 94 -14 51 -13 63 26 201
24 87 27 118 27 240 0 111 -4 156 -21 217 -98 360 -391 673 -696 743 -39 9
-81 24 -95 34 -31 22 -113 51 -145 51 -14 0 -28 10 -37 27 -19 35 -83 81 -126
89 -26 5 -38 15 -52 43 -51 98 -176 144 -291 108z m176 -62 c50 -29 91 -92
102 -156 6 -35 12 -45 30 -47 19 -3 22 1 22 27 0 39 18 40 60 4 36 -30 31 -36
-35 -47 -41 -8 -119 -52 -149 -85 -16 -18 -21 -18 -69 -5 -29 8 -90 17 -135
21 -97 7 -102 12 -102 114 0 119 73 198 184 199 35 0 62 -7 92 -25z m375 -265
c133 -37 186 -153 117 -256 -73 -108 -230 -150 -403 -109 -21 5 -9 -7 45 -42
96 -63 111 -70 78 -40 l-26 25 76 4 c103 6 187 44 247 110 54 60 69 103 62
179 l-5 58 66 -25 c207 -77 387 -252 506 -491 121 -242 133 -471 37 -745 -11
-32 -16 -60 -12 -63 5 -2 12 -20 15 -38 8 -45 62 -104 111 -122 l40 -15 -69 5
c-48 3 -86 13 -122 31 l-52 26 -72 -50 c-128 -91 -198 -102 -558 -95 -213 5
-259 8 -255 20 6 15 -23 18 -32 3 -9 -15 -25 -12 -25 5 0 38 75 44 280 21 69
-8 127 -13 129 -10 8 7 -64 32 -129 44 -74 14 -105 37 -143 108 -67 123 -75
263 -21 362 32 59 107 125 154 135 41 9 38 26 -2 19 -56 -11 -131 -59 -165
-106 -43 -59 -67 -154 -58 -226 9 -74 48 -187 79 -231 14 -19 24 -36 23 -36
-1 -1 -21 0 -44 3 -38 4 -41 6 -33 22 15 28 12 50 -14 106 -23 49 -94 139
-103 131 -2 -3 5 -20 16 -38 11 -19 26 -59 35 -89 20 -71 10 -114 -40 -175
-39 -45 -39 -46 -94 -43 -61 3 -70 16 -25 37 38 18 45 28 45 68 0 81 -74 239
-195 417 -46 68 -105 163 -131 212 -30 55 -74 115 -116 160 l-69 72 73 -22
c40 -13 89 -31 108 -41 l35 -18 -23 25 c-31 34 -106 73 -169 88 -47 11 -60 20
-133 101 -45 49 -92 94 -104 100 -11 6 4 -15 35 -47 58 -62 114 -134 104 -134
-9 0 -75 49 -112 84 -26 24 -33 26 -33 13 0 -15 -3 -16 -21 -7 -42 23 -103 86
-121 126 -16 38 -17 45 -3 70 8 16 15 37 15 46 0 33 241 156 381 194 90 25
291 25 376 0 l61 -18 -5 -37 -5 -36 36 53 c39 55 91 95 153 118 45 16 153 18
204 4z m-416 -1550 c3 -5 -2 -10 -13 -10 -11 0 -31 -9 -46 -21 -18 -14 -33
-18 -48 -13 -22 7 -22 7 6 30 28 25 89 33 101 14z"/>
<path d="M2635 3027 c-28 -16 -48 -38 -68 -79 -38 -73 -30 -96 10 -31 42 67
91 104 149 111 30 3 41 8 32 13 -24 16 -82 9 -123 -14z"/>
<path d="M2003 2958 c-12 -6 -27 -23 -33 -38 -31 -75 100 -126 133 -52 6 15
16 30 22 34 15 11 -36 57 -70 62 -16 3 -40 1 -52 -6z m67 -33 c0 -8 -9 -15
-20 -15 -20 0 -26 11 -13 23 12 13 33 7 33 -8z"/>
<path d="M1815 2872 c-50 -21 -81 -40 -75 -44 3 -2 34 11 70 29 69 34 72 43 5
15z"/>
<path d="M1732 2791 c-12 -7 180 -4 203 4 6 2 -35 4 -90 4 -55 0 -106 -3 -113
-8z"/>
<path d="M1750 2760 c0 -3 33 -14 73 -24 39 -9 99 -28 132 -41 33 -13 51 -18
41 -10 -40 30 -246 93 -246 75z"/>
<path d="M1720 2745 c0 -2 33 -25 73 -51 39 -25 92 -62 117 -81 l45 -35 -51
49 c-42 40 -184 131 -184 118z"/>
<path d="M1460 3040 c6 -11 13 -20 16 -20 2 0 0 9 -6 20 -6 11 -13 20 -16 20
-2 0 0 -9 6 -20z"/>
<path d="M1360 3026 c0 -2 8 -10 18 -17 15 -13 16 -12 3 4 -13 16 -21 21 -21
13z"/>
<path d="M1398 2873 c7 -3 16 -2 19 1 4 3 -2 6 -13 5 -11 0 -14 -3 -6 -6z"/>
<path d="M1526 2465 c-9 -26 -7 -32 5 -12 6 10 9 21 6 23 -2 3 -7 -2 -11 -11z"/>
<path d="M1642 2305 c0 -16 2 -22 5 -12 2 9 2 23 0 30 -3 6 -5 -1 -5 -18z"/>
</g>
</svg>